# xmcd CD database file
#
# Track frame offsets:
#	150
#	11683
#	28523
#
# Disc length: 581 seconds
#
# Revision: 0
# Processed by: cddbd v1.5.1PL0 Copyright (c) Steve Scherf et al.
# Submitted via: CDex 1.50beta10
#
DISCID=18024303
DTITLE=KEMURI - Demonstration for a happy Life
DYEAR=2005
DGENRE=Ska
TTITLE0=I want to stay with you tonite
TTITLE1=My white station wagon
TTITLE2=Things your smile gives
EXTD=YEAR: 2005
EXTT0=
EXTT1=
EXTT2=
PLAYORDER=
